# xmcd CD database generated by RipIT
#
# Track frame offsets:
# 150
# 18131
# 33120
# 47418
# 63688
# 78397
# 92917
# 106674
# 122456
# 138598
#
# Disc length: 2536 seconds
#
# Revision: 0
# Processed by: cddbd v1.5.2PL0 Copyright (c) Steve Scherf et al.
# Submitted via: RipIT 3.9.0 www.suwald.com/ripit/ripit.html on 2018-02-10 at 16:33
#
DISCID=7309e60a
DTITLE=Maroon 5 - Red pill blues
DYEAR=2017
DGENRE=Pop
TTITLE0=Best 4 you
TTITLE1=What lovers do - (feat. SZA)
TTITLE2=Wait
TTITLE3=Lips on you
TTITLE4=Bet my heart
TTITLE5=Help me out - (feat. Julia Michaels)
TTITLE6=Who I am - (feat. Lunchmoney Lewis)
TTITLE7=Whiskey - (feat. A$AP Rocky)
TTITLE8=Girls like you
TTITLE9=Closure
EXTD=
EXTT0=
EXTT1=
EXTT2=
EXTT3=
EXTT4=
EXTT5=
EXTT6=
EXTT7=
EXTT8=
EXTT9=
PLAYORDER=
